<?xml version="1.0" encoding="UTF-8"?>
<svg version="1.1" xmlns="http://www.w3.org/2000/svg" width="512" height="512">
<path d="M0 0 C1.03251015 -0.00679667 1.03251015 -0.00679667 2.08587909 -0.01373065 C4.37403396 -0.02631008 6.66194883 -0.0247585 8.95013428 -0.02310181 C10.59832563 -0.02909116 12.24651419 -0.03589764 13.8946991 -0.04345703 C18.35977188 -0.06108419 22.82476795 -0.06581106 27.28987217 -0.0670886 C30.08356327 -0.06851278 32.87723504 -0.07278744 35.67092133 -0.07808304 C45.42888115 -0.09657339 55.18678642 -0.10475501 64.94476318 -0.10317993 C74.02145672 -0.10197924 83.0979122 -0.12307 92.17454553 -0.15466726 C99.98287322 -0.18087464 107.79112339 -0.19154534 115.5994947 -0.19026911 C120.25613517 -0.18976073 124.91256404 -0.19537488 129.56916046 -0.21662521 C133.9523627 -0.23608264 138.33515311 -0.23608116 142.71837044 -0.22159195 C144.31986917 -0.21951193 145.92139419 -0.22415625 147.52284813 -0.23631287 C160.71076606 -0.32987514 170.79406629 1.35336693 180.58587646 10.83383179 C189.13647034 20.16311373 191.04224683 28.8614803 191.81634521 41.26742554 C192.90947021 40.71055054 194.00259521 40.15367554 195.12884521 39.57992554 C215.01926982 29.67513648 236.50671974 21.95002946 258.76947021 19.90414429 C264.78433243 19.60774294 264.78433243 19.60774294 269.46868896 16.35726929 C270.72316811 14.03256486 270.72316811 14.03256486 271.72259521 11.58773804 C274.29834653 6.1234656 279.45371294 3.10641071 284.8895874 0.87387085 C288.14171977 -0.14973493 291.38002936 -0.22058069 294.75384521 -0.17007446 C295.45751221 -0.16322632 296.1611792 -0.15637817 296.88616943 -0.14932251 C302.44920493 0.02286976 306.37188155 0.9639611 310.81634521 4.26742554 C312.39415771 5.35023804 312.39415771 5.35023804 314.00384521 6.45492554 C318.03293155 10.48401187 321.81634521 15.39429248 321.81634521 21.26742554 C323.12087646 21.38988647 324.42540771 21.51234741 325.76947021 21.63851929 C354.36255014 24.84714945 383.28909616 38.84594035 405.81634521 56.26742554 C406.61040771 56.79723022 407.40447021 57.32703491 408.22259521 57.87289429 C410.19134521 59.26742554 410.19134521 59.26742554 412.81634521 62.26742554 C412.95714521 64.82315881 412.74992773 67.25316869 412.54290771 69.80258179 C412.91055946 73.11669963 414.10999493 74.0282281 416.62884521 76.14242554 C417.69038818 76.91199585 417.69038818 76.91199585 418.77337646 77.69711304 C420.81634521 79.26742554 420.81634521 79.26742554 422.33587646 81.45883179 C422.82443115 82.05566772 423.31298584 82.65250366 423.81634521 83.26742554 C427.38306451 83.40456742 427.38306451 83.40456742 429.68353271 83.11508179 C433.34261817 83.37644503 435.70691375 85.0386894 438.14447021 87.7383728 C439.62683283 89.62185467 441.01225944 91.54824896 442.37884521 93.51742554 C442.89406738 94.25686401 443.40928955 94.99630249 443.94012451 95.75814819 C458.3118332 116.96387994 467.56155624 140.29607623 472.81634521 165.26742554 C472.98150635 166.01459839 473.14666748 166.76177124 473.3168335 167.53158569 C479.08843949 194.71841642 477.84704348 226.26375468 471.81634521 253.26742554 C471.59672119 254.25291382 471.37709717 255.2384021 471.15081787 256.25375366 C461.46272223 298.35206028 441.91506467 335.28807879 416.04046631 369.56600952 C414.75492083 371.25748643 414.75492083 371.25748643 413.81634521 373.26742554 C414.7584082 373.24647827 415.70047119 373.22553101 416.67108154 373.20394897 C420.21789635 373.13515065 423.76398657 373.0853274 427.31121826 373.04769897 C428.83672381 373.02777243 430.3621549 373.00062069 431.88739014 372.96566772 C443.42083753 372.7082754 454.27009998 373.05518264 463.12884521 381.45492554 C470.48211087 388.57438306 475.35576487 395.64900734 476.08377075 406.11026001 C476.10150827 407.51444563 476.10865282 408.91879308 476.10687256 410.3230896 C476.11358978 411.09648178 476.12030701 411.86987396 476.12722778 412.66670227 C476.14611464 415.20555169 476.15012745 417.74413537 476.15228271 420.28305054 C476.15871789 422.06273504 476.16544678 423.84241849 476.17245483 425.62210083 C476.18440491 429.34748789 476.18813808 433.07278239 476.18695068 436.79818726 C476.18674781 441.54683896 476.21402778 446.29489013 476.2484951 451.04339981 C476.27085223 454.718828 476.27478551 458.39411377 476.27373123 462.06960297 C476.27607479 463.81891699 476.2848273 465.56823569 476.30039597 467.31748199 C476.4119103 481.14263604 475.30278029 491.65397289 465.24993896 502.03695679 C457.52204598 509.119825 450.28133007 512.5057281 439.63269043 512.53485107 C438.94435033 512.53938219 438.25601023 512.5439133 437.54681134 512.54858172 C435.25865647 512.56116115 432.9707416 512.55960957 430.68255615 512.55795288 C429.0343648 512.56394223 427.38617624 512.57074871 425.73799133 512.57830811 C421.27291855 512.59593526 416.80792248 512.60066214 412.34281826 512.60193968 C409.54912716 512.60336385 406.75545539 512.60763852 403.9617691 512.61293411 C394.20380928 512.63142447 384.44590401 512.63960609 374.68792725 512.63803101 C365.61123371 512.63683031 356.53477823 512.65792107 347.4581449 512.68951833 C339.64981721 512.71572572 331.84156704 512.72639641 324.03319573 512.72512019 C319.37655526 512.72461181 314.72012639 512.73022595 310.06352997 512.75147629 C305.68032773 512.77093371 301.29753732 512.77093223 296.91431999 512.75644302 C295.31282126 512.754363 293.71129624 512.75900733 292.1098423 512.77116394 C280.67212961 512.8523093 269.96771989 512.18809688 261.31634521 503.76742554 C260.12525146 502.63820679 260.12525146 502.63820679 258.91009521 501.48617554 C256.81634521 499.26742554 256.81634521 499.26742554 255.72210693 497.15805054 C253.2050354 494.66097112 251.15200303 494.79524996 247.71127319 494.76437378 C246.89258759 494.77569336 246.07390198 494.78701294 245.23040771 494.79867554 C244.37764252 494.79162598 243.52487732 494.78457642 242.64627075 494.77731323 C239.00472331 494.74792817 235.36371254 494.76427866 231.72210693 494.77670288 C216.75456334 494.79028258 203.12381985 494.46045205 191.81634521 483.26742554 C182.21887847 472.91679437 181.2089163 461.70490974 181.12884521 448.20492554 C181.09976077 445.92840695 181.06532664 443.65208728 181.02635193 441.37571716 C180.99375826 439.33446401 180.97559417 437.29299557 180.95819092 435.2515564 C181.1572344 432.38406937 181.1572344 432.38406937 179.81634521 431.26742554 C178.28526931 431.15811673 176.74962636 431.11156429 175.21478271 431.09164429 C153.0832058 430.61137287 133.19769217 426.49709335 116.81634521 410.26742554 C101.60635972 392.8914611 97.80120428 374.9088804 97.49993896 352.48226929 C97.46876732 350.5370211 97.46876732 350.5370211 97.43696594 348.55247498 C97.38224702 345.13479463 97.33262045 341.71705936 97.28411865 338.29928589 C97.23353282 334.79968483 97.17804201 331.30016174 97.12298584 327.80062866 C97.01601985 320.95629542 96.91444301 314.11189148 96.81634521 307.26742554 C95.94099121 307.21554077 95.06563721 307.16365601 94.16375732 307.11019897 C93.00625977 307.03317749 91.84876221 306.95615601 90.65618896 306.87680054 C88.94097046 306.76803589 88.94097046 306.76803589 87.19110107 306.65707397 C79.63713594 305.78489512 73.09125698 302.78768203 67.81634521 297.26742554 C64.02097168 291.41966251 61.66320569 286.36972902 61.44134521 279.32992554 C61.39236084 278.2896521 61.34337646 277.24937866 61.29290771 276.17758179 C62.65534518 265.99997057 68.57021956 256.60378138 73.31634521 247.64242554 C74.55486893 245.27863155 75.79216143 242.91424409 77.02728271 240.54867554 C77.340112 239.95029877 77.65294128 239.351922 77.97525024 238.7354126 C81.36554371 232.23846704 84.66290294 225.6964806 87.94134521 219.14242554 C88.4730835 218.08329956 89.00482178 217.02417358 89.55267334 215.93295288 C90.99047685 213.05227018 92.40419941 210.16074261 93.81634521 207.26742554 C94.21603516 206.49318237 94.6157251 205.71893921 95.02752686 204.92123413 C97.90987366 199.05766516 98.60933126 193.62309298 99.00384521 187.14242554 C99.14166378 185.24387823 99.28095358 183.34543708 99.42181396 181.44711304 C99.47490723 180.61937378 99.52800049 179.79163452 99.58270264 178.93881226 C99.81634521 176.26742554 99.81634521 176.26742554 100.71331787 172.86703491 C100.82364923 169.01223506 100.74667452 168.63997154 98.39129639 165.91830444 C97.23451557 164.75604773 96.05556263 163.61558139 94.85931396 162.49398804 C94.24115311 161.88477509 93.62299225 161.27556213 92.98609924 160.64788818 C91.01001066 158.70988481 89.00763252 156.80173313 87.00384521 154.89242554 C85.6654936 153.585635 84.32888268 152.2770592 82.99407959 150.96664429 C74.76088095 142.38914727 74.76088095 142.38914727 63.60369873 140.12557983 C62.86029739 140.12210541 62.11689606 140.11863098 61.35096741 140.11505127 C59.73259291 140.10768896 58.11420827 140.10234611 56.495821 140.0987606 C53.92597947 140.09159052 51.35632839 140.07591603 48.7865448 140.05741882 C41.47822829 140.00500292 34.17001128 139.95706195 26.86151123 139.9414978 C22.3915589 139.9313546 17.92207911 139.90186229 13.45231438 139.86017799 C11.75608857 139.84794348 10.05979574 139.8427328 8.3635273 139.84497643 C-5.28670996 139.85857703 -15.71184638 138.61672016 -25.95318604 128.70101929 C-33.29038181 120.69563755 -36.48809638 113.18755187 -36.47418213 102.21176147 C-36.48089935 101.43836929 -36.48761658 100.66497711 -36.49453735 99.8681488 C-36.51342421 97.32929938 -36.51743702 94.7907157 -36.51959229 92.25180054 C-36.52602746 90.47211604 -36.53275635 88.69243258 -36.5397644 86.91275024 C-36.55171448 83.18736318 -36.55544765 79.46206868 -36.55426025 75.73666382 C-36.55405738 70.98801211 -36.58133735 66.23996094 -36.61580467 61.49145126 C-36.6381618 57.81602308 -36.64209508 54.1407373 -36.6410408 50.46524811 C-36.64338436 48.71593409 -36.65213687 46.96661539 -36.66770554 45.21736908 C-36.77921987 31.39221503 -35.67008986 20.88087818 -25.61724854 10.49789429 C-17.88935555 3.41502608 -10.64863964 0.02912298 0 0 Z " fill="#010101" transform="translate(36.18365478515625,-0.267425537109375)"/>
<path d="M0 0 C6.07903529 -0.34643078 11.13146551 0.88966794 16.9375 2.625 C17.86481934 2.89860352 18.79213867 3.17220703 19.74755859 3.45410156 C40.87067312 9.79285531 60.85595778 18.69898429 78.1015625 32.70703125 C81.27981863 35.24823604 82.58892151 36.02055392 86.75 35.8125 C87.8225 35.544375 88.895 35.27625 90 35 C94.91511344 35 97.59459535 38.71084411 101 42 C103.5625 44.75 103.5625 44.75 105 47 C104.67 47.99 104.34 48.98 104 50 C103.46930918 55.57802198 103.62446975 58.36491348 107.30200195 62.86694336 C108.01876099 63.7062439 108.01876099 63.7062439 108.75 64.5625 C119.688788 78.41805837 127.79033347 95.1466466 133 112 C133.33354492 113.07266113 133.33354492 113.07266113 133.67382812 114.16699219 C141.96531002 141.53360694 144.39588117 172.78466609 139 201 C138.8551416 201.76054687 138.7102832 202.52109375 138.56103516 203.3046875 C136.7553044 212.64073888 134.66783162 221.87016408 132 231 C131.78786865 231.74685059 131.5757373 232.49370117 131.35717773 233.26318359 C122.63709766 263.33307914 107.53866117 291.37070714 88.77734375 316.3203125 C88.27541504 316.9891748 87.77348633 317.65803711 87.25634766 318.34716797 C86.3383757 319.5569538 85.40828874 320.75771273 84.46240234 321.94580078 C81.11660983 326.296242 79.48064104 330.73648808 78 336 C67.52648134 338.27494975 54.36844067 340.540356 44.72515869 334.5982666 C35.20395818 327.43861059 27.18685279 318.18387143 19.54023743 309.10501099 C18.99884628 308.46465912 18.45745514 307.82430725 17.8996582 307.16455078 C17.43356644 306.60051544 16.96747467 306.0364801 16.48725891 305.45535278 C13.08243594 302.12357339 9.76805313 301.68407192 5.125 301.625 C-0.08266907 301.72636582 -3.10580633 302.30051602 -7 306 C-11.95521411 311.57920404 -11.65631328 317.14408834 -11.75 324.375 C-11.77964844 325.49261719 -11.80929687 326.61023438 -11.83984375 327.76171875 C-11.91025824 330.5078839 -11.96309623 333.25321404 -12 336 C-12.8156543 336.00410889 -13.63130859 336.00821777 -14.47167969 336.01245117 C-17.55871651 336.03975655 -20.64446651 336.08917713 -23.73095703 336.15258789 C-25.69932778 336.18662381 -27.66807389 336.19617471 -29.63671875 336.20507812 C-41.27388765 336.47090178 -50.64519752 339.12623629 -59.28125 347.15625 C-68.49251566 357.03742589 -70.45854008 365.7969001 -70.5 379 C-70.50612305 380.11084961 -70.51224609 381.22169922 -70.51855469 382.36621094 C-70.59562113 389.31915793 -70.59562113 389.31915793 -67 395 C-66.01 395.33 -65.02 395.66 -64 396 C-63.85489838 399.27036728 -63.76600627 402.53991007 -63.6875 405.8125 C-63.6246582 407.2056543 -63.6246582 407.2056543 -63.56054688 408.62695312 C-63.51451788 411.17695924 -63.51584598 413.49477771 -64 416 C-66.45703125 418.01171875 -66.45703125 418.01171875 -69 419 C-70.20270964 421.40541929 -70.20316663 423.10366591 -70.31640625 425.7890625 C-70.37924805 427.20058594 -70.37924805 427.20058594 -70.44335938 428.640625 C-70.48267578 429.62546875 -70.52199219 430.6103125 -70.5625 431.625 C-70.60568359 432.61757813 -70.64886719 433.61015625 -70.69335938 434.6328125 C-70.79961069 437.08839838 -70.90164964 439.54408703 -71 442 C-75.53484864 442.09972601 -80.0690432 442.17186655 -84.60473633 442.21972656 C-86.14391211 442.23970121 -87.68301338 442.26689097 -89.22192383 442.30175781 C-105.55142399 442.66216223 -105.55142399 442.66216223 -113 438 C-113.9075 437.46375 -114.815 436.9275 -115.75 436.375 C-123.88212922 427.79108583 -123.64485737 417.98152356 -123.5 406.875 C-122.81995238 394.43060624 -122.81995238 394.43060624 -127.5534668 383.38525391 C-133.22537795 377.95362118 -139.77255336 378.5612444 -147.1875 378.5 C-164.00426371 378.35859778 -178.38522384 374.26477604 -190.75 362.3359375 C-200.83536125 351.86537148 -206.17352905 339.66463568 -206.09765625 324.9453125 C-206.09515869 323.94516113 -206.09266113 322.94500977 -206.09008789 321.91455078 C-206.08098389 320.66399902 -206.07187988 319.41344727 -206.0625 318.125 C-206.041875 314.12375 -206.02125 310.1225 -206 306 C-197.09 306 -188.18 306 -179 306 C-177.35 309.3 -175.7 312.6 -174 316 C-167.62303302 322.49505896 -162.27970814 325.12607802 -153.1875 325.5 C-145.54571221 325.31321879 -139.97517608 323.46752372 -134.1953125 318.42578125 C-129.12039516 313.01001125 -125.83175401 306.5313721 -125.5625 299.0625 C-125.74620449 295.38650454 -126.42443263 292.19126067 -127.52734375 288.68359375 C-127.8018335 287.8011499 -128.07632324 286.91870605 -128.35913086 286.00952148 C-128.57061768 285.34637939 -128.78210449 284.6832373 -129 284 C-128.36908447 283.37432129 -127.73816895 282.74864258 -127.08813477 282.10400391 C-124.75100365 279.78390381 -122.41613222 277.46157708 -120.08276367 275.13769531 C-119.07194415 274.13190797 -118.06022938 273.12701952 -117.04760742 272.12304688 C-115.59318144 270.68073517 -114.14199385 269.23523328 -112.69140625 267.7890625 C-111.81685791 266.91975098 -110.94230957 266.05043945 -110.04125977 265.15478516 C-107.96493227 263.17190998 -107.96493227 263.17190998 -107 261 C-104.78552576 262.06622834 -102.75068049 263.16663702 -100.703125 264.53515625 C-95.92738124 267.12316768 -91.27092893 266.90358782 -86 266 C-81.69944552 264.0707793 -77.87053696 261.67727283 -74 259 C-71 257 -71 257 -68.66015625 257.28515625 C-67.78230469 257.52105469 -66.90445313 257.75695312 -66 258 C-64.63681641 258.27650391 -64.63681641 258.27650391 -63.24609375 258.55859375 C-59.81506539 259.63228135 -57.7013933 260.5880417 -55 263 C-53.48193613 266.60213805 -52.87638024 270.3740462 -52.39038086 274.23608398 C-51.58136499 280.16907527 -49.74462701 284.16997585 -45 288 C-38.94181764 291.09364982 -32.32779632 290.36844168 -25.6875 290.375 C-24.39392578 290.39949219 -23.10035156 290.42398437 -21.76757812 290.44921875 C-14.37531621 290.471906 -9.20451681 290.15866295 -3 286 C1.37650965 281.25814331 2.32517242 276.50574428 3.25 270.25 C4.40642538 263.51866845 4.40642538 263.51866845 7.04296875 261.21484375 C9.35711557 260.22198794 11.55641864 259.58866171 14 259 C14.97646484 258.43732422 14.97646484 258.43732422 15.97265625 257.86328125 C18.77925512 256.66817845 20.12382903 257.02685944 23 258 C24.89289691 259.29947785 26.74455322 260.66008391 28.5625 262.0625 C33.97058131 265.78347333 37.70378124 266.83414648 44.2109375 266.57421875 C51.8834305 264.99458784 56.38099326 260.07642014 61.6875 254.6875 C62.82541992 253.56698242 62.82541992 253.56698242 63.98632812 252.42382812 C68.89889435 247.48524654 73.28823407 242.78564019 73.75 235.5 C73.64300799 229.61543971 70.59369052 225.5762459 67.20214844 220.99804688 C63.60497881 216.03663002 63.53876087 213.05094874 64.42578125 207.18359375 C65.54021639 203.73228142 66.51996094 201.69014204 69 199 C72.82828028 197.27233235 76.8520136 196.41762282 80.96801758 195.65795898 C86.72844937 194.57705808 89.92992828 193.31540835 94 189 C97.00921639 183.14375603 96.37203074 176.69638975 96.37060547 170.28051758 C96.37498059 168.07229573 96.41134286 165.8660722 96.44921875 163.65820312 C96.4550877 162.24219427 96.45905657 160.82617601 96.4609375 159.41015625 C96.46915527 158.13277588 96.47737305 156.85539551 96.48583984 155.53930664 C95.82059893 150.69307671 93.65197404 147.74526199 90.33984375 144.24609375 C87.34819748 142.65287979 84.45859981 142.19100399 81.14379883 141.56835938 C70.19122342 139.42197365 70.19122342 139.42197365 66.640625 135.18359375 C64.72195922 130.58443901 63.34546673 126.00250429 64 121 C65.71484375 117.9921875 65.71484375 117.9921875 67.9375 114.875 C71.08668444 110.42059802 73.12953687 107.25815314 73.3125 101.75 C73.34988281 101.02296875 73.38726562 100.2959375 73.42578125 99.546875 C72.11877587 91.72882448 65.90414191 86.47695299 60.5 81.1875 C59.74074219 80.42501953 58.98148437 79.66253906 58.19921875 78.87695312 C51.79422451 72.53365323 47.85995543 70.28660855 38.6640625 70.328125 C33.4897027 71.27694151 29.90156415 73.73759402 25.75830078 76.88598633 C21.55530507 80.02436285 21.55530507 80.02436285 18.41796875 79.88671875 C17.62003906 79.59410156 16.82210937 79.30148438 16 79 C15.14019531 78.73703125 14.28039062 78.4740625 13.39453125 78.203125 C12.54246094 77.88859375 11.69039062 77.5740625 10.8125 77.25 C9.95269531 76.94578125 9.09289062 76.6415625 8.20703125 76.328125 C5.29258133 74.57429673 4.9213704 73.24084016 4 70 C3.51266953 67.86056569 3.05581235 65.71402756 2.625 63.5625 C0.80685251 55.55512825 0.80685251 55.55512825 -4.7890625 49.796875 C-9.41957002 47.25814115 -12.44155361 46.79406377 -18 46 C-18 36.43 -18 26.86 -18 17 C-14.37 15.02 -10.74 13.04 -7 11 C-3.72045441 7.21155941 -1.55574663 4.66723988 0 0 Z " fill="#A19BDC" transform="translate(356,37)"/>
<path d="M0 0 C2.43017578 -0.34057617 2.43017578 -0.34057617 5.4453125 -0.29296875 C6.52167969 -0.28330078 7.59804688 -0.27363281 8.70703125 -0.26367188 C10.39892578 -0.2259668 10.39892578 -0.2259668 12.125 -0.1875 C13.26066406 -0.17396484 14.39632812 -0.16042969 15.56640625 -0.14648438 C18.37807387 -0.11104319 21.18880417 -0.06163517 24 0 C27.17487081 9.18884465 27.17487081 9.18884465 27.9375 13.6875 C28.8932358 17.95497147 29.9407032 20.722182 33 24 C36.87370741 26.30054239 40.88983 28.16423237 45 30 C45.67933594 30.34417969 46.35867188 30.68835938 47.05859375 31.04296875 C51.32702616 33.14268262 55.34974294 33.9880816 60 33 C64.95303532 30.97288902 69.9089938 28.73585438 74.046875 25.30078125 C76.59487507 23.60381321 77.97739148 23.68177129 81 24 C83.99266492 25.98082367 86.36990539 28.62763621 88.875 31.1875 C89.57625 31.86103516 90.2775 32.53457031 91 33.22851562 C91.65742188 33.88916016 92.31484375 34.54980469 92.9921875 35.23046875 C93.89493408 36.13381958 93.89493408 36.13381958 94.81591797 37.05541992 C96 39 96 39 95.8034668 41.56738281 C94.74968549 44.75786502 92.98610636 46.90689917 90.9375 49.5625 C87.44005511 54.75184964 85.8126693 58.36957298 86.28515625 64.64453125 C88.04306425 72.89613221 90.93961181 83.08623547 97.4375 88.875 C102.54751634 91.967371 108.86120037 92.59788754 114.68359375 93.45703125 C118 94 118 94 119 95 C119.09959621 96.84159023 119.13080411 98.68696967 119.1328125 100.53125 C119.13410156 101.65144531 119.13539063 102.77164063 119.13671875 103.92578125 C119.13285156 105.10527344 119.12898437 106.28476563 119.125 107.5 C119.12886719 108.67949219 119.13273438 109.85898438 119.13671875 111.07421875 C119.13478516 112.75451172 119.13478516 112.75451172 119.1328125 114.46875 C119.13168457 115.50451172 119.13055664 116.54027344 119.12939453 117.60742188 C119 120 119 120 118 121 C114.72783546 121.59253729 111.45532032 122.14300072 108.16601562 122.63085938 C102.17327708 123.64348279 97.89991672 125.69707064 93.9375 130.5 C88.88473773 138.98522946 84.91770712 148.01270638 87 158 C88.95002987 162.28905534 91.32345182 166.13051066 94 170 C96 173 96 173 95.81152344 174.97167969 C94.277141 178.80671256 91.13431827 181.37735914 88.25 184.25 C87.62867188 184.8996875 87.00734375 185.549375 86.3671875 186.21875 C81.79597725 190.80924806 81.79597725 190.80924806 78.359375 191.6328125 C75.35877091 190.82801471 73.46438364 189.51179373 71 187.625 C64.76823852 182.89275613 59.82916628 181.03185173 52 182 C48.74514648 182.93953836 45.75046954 184.2502009 42.6875 185.6875 C41.90310547 186.02716797 41.11871094 186.36683594 40.31054688 186.71679688 C34.35201859 189.42521882 30.44069019 192.75768177 28 199 C27.42421207 201.5648735 26.90219312 204.10341286 26.4375 206.6875 C25.12671625 213.87328375 25.12671625 213.87328375 24 215 C22.21928754 215.08726223 20.4351686 215.10699041 18.65234375 215.09765625 C17.57275391 215.09443359 16.49316406 215.09121094 15.38085938 215.08789062 C14.24455078 215.07951172 13.10824219 215.07113281 11.9375 215.0625 C10.79732422 215.05798828 9.65714844 215.05347656 8.48242188 215.04882812 C5.65489649 215.03699747 2.8274736 215.0205141 0 215 C-0.48563496 213.5976864 -0.96645111 212.19370357 -1.4453125 210.7890625 C-1.71359863 210.00740723 -1.98188477 209.22575195 -2.25830078 208.42041016 C-3.17760919 205.4204024 -3.7167174 202.43427584 -4.1796875 199.3359375 C-6.06173804 193.97657453 -9.0220708 190.21814981 -14.07421875 187.56640625 C-15.5994482 186.87029958 -17.13805075 186.20288767 -18.6875 185.5625 C-19.49622559 185.22557129 -20.30495117 184.88864258 -21.13818359 184.54150391 C-29.39397307 181.05094817 -29.39397307 181.05094817 -38 182 C-41.62402777 184.00010577 -45.09825422 186.21559026 -48.46923828 188.61669922 C-49.12649902 189.0757666 -49.78375977 189.53483398 -50.4609375 190.0078125 C-51.04665527 190.43723145 -51.63237305 190.86665039 -52.23583984 191.30908203 C-54 192 -54 192 -56.00317383 191.31713867 C-59.49668791 189.01276058 -62.33820752 186.11377161 -65.3125 183.1875 C-65.97056641 182.57068359 -66.62863281 181.95386719 -67.30664062 181.31835938 C-71.96095472 176.74186036 -71.96095472 176.74186036 -72.13671875 173.40234375 C-70.78845714 170.55292489 -69.25942357 167.9925031 -67.5 165.375 C-63.32517759 159.12987632 -61.99162208 154.47330552 -63 147 C-63.76229913 144.33019334 -64.7202972 141.76475308 -65.75 139.1875 C-66.00209229 138.55360352 -66.25418457 137.91970703 -66.51391602 137.26660156 C-68.52091739 132.52790048 -70.6648619 128.37777311 -75.19140625 125.70703125 C-80.67494488 123.63828274 -85.93877249 122.30113678 -91.75 121.4921875 C-94 121 -94 121 -96 119 C-96.25878906 116.69335938 -96.25878906 116.69335938 -96.265625 113.84375 C-96.26820313 112.82152344 -96.27078125 111.79929687 -96.2734375 110.74609375 C-96.26183594 109.13927734 -96.26183594 109.13927734 -96.25 107.5 C-96.25773438 106.42878906 -96.26546875 105.35757813 -96.2734375 104.25390625 C-96.27085937 103.23167969 -96.26828125 102.20945312 -96.265625 101.15625 C-96.26336914 100.21587891 -96.26111328 99.27550781 -96.25878906 98.30664062 C-96 96 -96 96 -94 94 C-91.80630917 93.4760476 -89.59393898 93.0288754 -87.375 92.625 C-79.02839328 91.23719962 -79.02839328 91.23719962 -72 87 C-66.62846892 78.36069852 -60.60765953 67.41780822 -63 57 C-64.67909423 53.78173607 -66.72025629 50.81857069 -68.88598633 47.91015625 C-72.03968093 43.56894789 -72.03968093 43.56894789 -71.828125 40.53564453 C-70.88010937 37.63290564 -69.80505347 36.34101806 -67.62109375 34.23046875 C-66.94755859 33.56982422 -66.27402344 32.90917969 -65.58007812 32.22851562 C-64.87302734 31.55498047 -64.16597656 30.88144531 -63.4375 30.1875 C-62.72658203 29.49462891 -62.01566406 28.80175781 -61.28320312 28.08789062 C-59.53081688 26.3825483 -57.76978531 24.68724824 -56 23 C-50.60320157 24.89887352 -46.23837504 28.10491857 -41.546875 31.3203125 C-35.69497009 34.09158905 -30.6320336 33.75598356 -24.578125 31.64453125 C-23.12855051 31.0503363 -21.68569759 30.43948186 -20.25 29.8125 C-19.15751953 29.37454102 -19.15751953 29.37454102 -18.04296875 28.92773438 C-12.43864591 26.5629339 -8.70581688 23.59031453 -5.3125 18.4375 C-3.70901597 14.23789897 -3.11438599 10.15177965 -2.52734375 5.70703125 C-2 3 -2 3 0 0 Z " fill="#81DCFC" transform="translate(319,98)"/>
<path d="M0 0 C2.8793304 1.30241749 4.91141239 2.67327694 7.11279297 4.93334961 C7.69374725 5.52413803 8.27470154 6.11492645 8.8732605 6.72361755 C9.49000641 7.3600972 10.10675232 7.99657684 10.7421875 8.65234375 C12.06888849 9.99946905 13.39571534 11.34647041 14.72265625 12.69335938 C16.80094801 14.8151023 18.8767056 16.93924996 20.94970703 19.06616211 C22.95734655 21.12223885 24.97423418 23.16889597 26.9921875 25.21484375 C27.60488495 25.84929916 28.2175824 26.48375458 28.84884644 27.13743591 C29.43610504 27.7313765 30.02336365 28.32531708 30.62841797 28.93725586 C31.3897554 29.71763466 31.3897554 29.71763466 32.16647339 30.51377869 C37.12277117 34.53125809 41.66788973 35.43625917 47.89794922 35.36889648 C48.66626068 35.37266296 49.43457214 35.37642944 50.22616577 35.38031006 C51.88594216 35.3867201 53.54575529 35.38643363 55.20553207 35.38012505 C57.83804423 35.37097785 60.46984969 35.38128013 63.10232544 35.39674377 C70.58366862 35.43674063 78.06495436 35.43804922 85.54638672 35.43579102 C90.13110415 35.43573977 94.71543994 35.45498112 99.30005264 35.48512459 C101.88371183 35.49590197 104.46662765 35.48384801 107.05026245 35.47129822 C108.64793618 35.48020862 110.24560398 35.49028508 111.84326172 35.50170898 C112.55313232 35.49196548 113.26300293 35.48222198 113.99438477 35.47218323 C120.3990951 35.56299564 125.47590517 37.78811899 130.2421875 41.96484375 C130.78101563 42.61582031 131.31984375 43.26679688 131.875 43.9375 C132.42929687 44.58589844 132.98359375 45.23429687 133.5546875 45.90234375 C136.77525238 50.57651494 137.25694298 54.59503216 137.29052734 60.21777344 C137.29724457 60.92581116 137.30396179 61.63384888 137.31088257 62.36334229 C137.32982104 64.69542537 137.33378499 67.02721987 137.3359375 69.359375 C137.34236965 70.98976762 137.34909832 72.62015909 137.35610962 74.25054932 C137.36807296 77.66673455 137.37179155 81.08281874 137.37060547 84.49902344 C137.37040264 88.85784301 137.39767131 93.21600795 137.43214989 97.5746727 C137.45448766 100.94292116 137.45844087 104.31101399 137.45738602 107.67932892 C137.45973292 109.28516133 137.46850473 110.89099863 137.48405075 112.49675751 C137.56866445 122.14158226 137.53266914 130.60224887 131.03515625 138.33984375 C130.05869141 139.13068359 130.05869141 139.13068359 129.0625 139.9375 C128.41410156 140.48277344 127.76570312 141.02804687 127.09765625 141.58984375 C122.55240352 144.64540471 118.69863806 145.25208146 113.26445007 145.26742554 C112.60020344 145.27195665 111.93595681 145.27648776 111.25158149 145.28115618 C109.03312812 145.29378303 106.8149208 145.29218095 104.59643555 145.29052734 C103.00278407 145.29651371 101.4091355 145.30331951 99.81549072 145.31088257 C95.49099187 145.32853963 91.16657219 145.33323785 86.84204078 145.33451414 C84.13850378 145.33593656 81.43498686 145.3402079 78.73145485 145.34550858 C69.29467111 145.36400847 59.85794385 145.37217931 50.42114258 145.37060547 C41.63299079 145.36940435 32.84508471 145.39050096 24.05699509 145.4220928 C16.50522767 145.44827011 8.95354041 145.45897214 1.40172797 145.45769465 C-3.10561938 145.45718541 -7.61274838 145.46284755 -12.12005043 145.48405075 C-16.36122727 145.50345751 -20.60197803 145.50354111 -24.84317017 145.48901749 C-26.39593823 145.48693124 -27.94873313 145.49161933 -29.50145531 145.5037384 C-38.80013286 145.57158922 -45.89015313 145.39767309 -53.2421875 139.0703125 C-53.78101563 138.42835938 -54.31984375 137.78640625 -54.875 137.125 C-55.42929687 136.48820313 -55.98359375 135.85140625 -56.5546875 135.1953125 C-60.93043968 128.54889972 -60.3486649 121.18115588 -60.390625 113.5234375 C-60.44960848 108.11363342 -60.44960848 108.11363342 -62.8515625 103.4140625 C-65.03357121 101.84579654 -65.03357121 101.84579654 -68 101 C-68 94.4 -68 87.8 -68 81 C-65.525 80.01 -65.525 80.01 -63 79 C-60.82060798 75.73091196 -60.75174738 74.7459943 -60.7265625 70.95703125 C-60.7059375 69.96509766 -60.6853125 68.97316406 -60.6640625 67.95117188 C-60.63826491 65.87833558 -60.61989102 63.80539202 -60.609375 61.73242188 C-60.43066559 54.04295301 -59.16169079 48.60797319 -54.03515625 42.7578125 C-53.38417969 42.21898437 -52.73320312 41.68015625 -52.0625 41.125 C-51.08990234 40.29355469 -51.08990234 40.29355469 -50.09765625 39.4453125 C-45.55419548 36.3148088 -41.62509318 35.74789806 -36.16015625 35.69140625 C-34.84982422 35.66626953 -33.53949219 35.64113281 -32.18945312 35.61523438 C-30.12476762 35.58652752 -28.06016127 35.56247873 -25.99536133 35.54370117 C-23.98762153 35.52192214 -21.98010678 35.4818512 -19.97265625 35.44140625 C-18.77906494 35.42795166 -17.58547363 35.41449707 -16.35571289 35.40063477 C-12.66266179 34.95972557 -10.23847073 33.77314725 -7 32 C-6.34 32 -5.68 32 -5 32 C-3.14492239 27.42414189 -1.87815517 23.6652162 -1.71875 18.7109375 C-1.68136719 17.68742187 -1.64398438 16.66390625 -1.60546875 15.609375 C-1.53490176 13.44532078 -1.46459109 11.28125819 -1.39453125 9.1171875 C-1.35714844 8.09625 -1.31976563 7.0753125 -1.28125 6.0234375 C-1.25095703 5.08419434 -1.22066406 4.14495117 -1.18945312 3.17724609 C-1 1 -1 1 0 0 Z " fill="#FD995B" transform="translate(360,352)"/>
<path d="M0 0 C0.99636995 -0.00679667 0.99636995 -0.00679667 2.01286858 -0.01373065 C4.23132195 -0.02635749 6.44952928 -0.02475542 8.66801453 -0.02310181 C10.261666 -0.02908817 11.85531458 -0.03589397 13.44895935 -0.04345703 C17.7734582 -0.0611141 22.09787788 -0.06581231 26.4224093 -0.0670886 C29.12594629 -0.06851102 31.82946322 -0.07278236 34.53299522 -0.07808304 C43.96977896 -0.09658293 53.40650622 -0.10475377 62.8433075 -0.10317993 C71.63145928 -0.10197881 80.41936536 -0.12307542 89.20745498 -0.15466726 C96.75922241 -0.18084457 104.31090966 -0.1915466 111.8627221 -0.19026911 C116.37006945 -0.18975987 120.87719845 -0.19542201 125.3845005 -0.21662521 C129.62567735 -0.23603197 133.86642811 -0.23611558 138.10762024 -0.22159195 C139.6603883 -0.2195057 141.21318321 -0.2241938 142.76590538 -0.23631287 C152.05308254 -0.30407977 159.20614994 -0.16519636 166.50663757 6.23226929 C167.0454657 6.88324585 167.58429382 7.53422241 168.13945007 8.20492554 C168.69374695 8.85332397 169.24804382 9.50172241 169.81913757 10.16976929 C173.03970245 14.84394048 173.52139305 18.86245769 173.55497742 24.48519897 C173.56169464 25.19323669 173.56841187 25.90127441 173.57533264 26.63076782 C173.59427111 28.96285091 173.59823507 31.29464541 173.60038757 33.62680054 C173.60681972 35.25719315 173.6135484 36.88758462 173.62055969 38.51797485 C173.63252304 41.93416008 173.63624163 45.35024428 173.63505554 48.76644897 C173.63485271 53.12526854 173.66212138 57.48343349 173.69659996 61.84209824 C173.71893773 65.2103467 173.72289095 68.57843953 173.72183609 71.94675446 C173.72418299 73.55258687 173.7329548 75.15842417 173.74850082 76.76418304 C173.83311453 86.4090078 173.79711922 94.86967441 167.29960632 102.60726929 C166.32314148 103.39810913 166.32314148 103.39810913 165.32695007 104.20492554 C164.67855164 104.75019897 164.0301532 105.29547241 163.36210632 105.85726929 C158.70767355 108.98622689 154.73389556 109.52074858 149.17070007 109.57601929 C147.79699774 109.60116992 146.42329992 109.62656808 145.04960632 109.65219116 C142.90362124 109.68093862 140.75771413 109.70498436 138.61161804 109.72372437 C136.52675138 109.7454467 134.44276089 109.78487334 132.35820007 109.82601929 C130.49711609 109.84620117 130.49711609 109.84620117 128.59843445 109.86679077 C125.03538498 110.29495159 123.20061002 111.28578044 120.26445007 113.26742554 C119.60445007 113.26742554 118.94445007 113.26742554 118.26445007 113.26742554 C117.95507507 114.05117554 117.64570007 114.83492554 117.32695007 115.64242554 C116.26445007 118.26742554 116.26445007 118.26742554 115.26445007 120.26742554 C115.11138106 122.07913652 115.01498346 123.89580494 114.94804382 125.71273804 C114.90614929 126.78910522 114.86425476 127.86547241 114.8210907 128.97445679 C114.78177429 130.10238647 114.74245789 131.23031616 114.70195007 132.39242554 C114.63717468 134.09592163 114.63717468 134.09592163 114.5710907 135.83383179 C114.46478968 138.64490322 114.36275602 141.45606498 114.26445007 144.26742554 C110.26445007 144.26742554 110.26445007 144.26742554 108.64692688 143.11073303 C108.12319489 142.56906998 107.59946289 142.02740692 107.05986023 141.46932983 C106.45888519 140.8583696 105.85791016 140.24740936 105.23872375 139.61793518 C104.60010406 138.94925919 103.96148437 138.28058319 103.30351257 137.59164429 C102.63532501 136.91068192 101.96713745 136.22971954 101.27870178 135.52812195 C99.13920583 133.34632787 97.01324635 131.15199759 94.88945007 128.95492554 C92.77202935 126.76937952 90.65172057 124.5870591 88.5216217 122.41386414 C87.19616145 121.06124289 85.87793496 119.70148407 84.56806946 118.33375549 C83.9607901 117.71333878 83.35351074 117.09292206 82.72782898 116.45370483 C82.2025058 115.909655 81.67718262 115.36560516 81.13594055 114.80506897 C76.18318717 110.73581572 71.62280266 109.83088262 65.36650085 109.89852905 C64.21403366 109.89287933 64.21403366 109.89287933 63.0382843 109.88711548 C61.37850791 109.88070544 59.71869478 109.8809919 58.058918 109.88730049 C55.42640584 109.89644769 52.79460038 109.88614541 50.16212463 109.87068176 C42.68078146 109.83068491 35.19949571 109.82937632 27.71806335 109.83163452 C23.13334592 109.83168577 18.54901014 109.81244441 13.96439743 109.78230095 C11.38073825 109.77152357 8.79782242 109.78357753 6.21418762 109.79612732 C4.61651389 109.78721692 3.01884609 109.77714045 1.42118835 109.76571655 C0.71131775 109.77546005 0.00144714 109.78520355 -0.72993469 109.79524231 C-7.1324344 109.70446124 -12.18032439 107.46652208 -16.97773743 103.33773804 C-17.51656555 102.69578491 -18.05539368 102.05383179 -18.61054993 101.39242554 C-19.44199524 100.43723022 -19.44199524 100.43723022 -20.29023743 99.46273804 C-23.53251917 94.53797496 -23.99151803 89.7098205 -24.02607727 83.92025757 C-24.03279449 83.21046753 -24.03951172 82.50067749 -24.0464325 81.76937866 C-24.06533029 79.43792599 -24.06933238 77.1067624 -24.07148743 74.77523804 C-24.07792073 73.14387904 -24.08464948 71.51252118 -24.09165955 69.88116455 C-24.1036115 66.46675951 -24.10734249 63.05245548 -24.1061554 59.63803101 C-24.10595225 55.2780216 -24.13325923 50.91866427 -24.16769981 46.55880928 C-24.19001324 43.19060328 -24.1939916 39.82255318 -24.19293594 36.45428085 C-24.19528503 34.84762194 -24.20406931 33.24095827 -24.21960068 31.63437271 C-24.36926527 14.55520408 -24.36926527 14.55520408 -17.77070618 7.02523804 C-17.11972961 6.48640991 -16.46875305 5.94758179 -15.79804993 5.39242554 C-15.14965149 4.83812866 -14.50125305 4.28383179 -13.83320618 3.71273804 C-9.31337939 0.59851846 -5.43794688 0.01535469 0 0 Z " fill="#72D88B" transform="translate(38.73554992675781,14.732574462890625)"/>
<path d="M0 0 C0.29132813 0.66386719 0.58265625 1.32773437 0.8828125 2.01171875 C5.14386816 11.19040782 9.02054752 13.8688843 18 19 C18 28.57 18 38.14 18 48 C14.7 48.66 11.4 49.32 8 50 C2.53011675 53.08783732 0.90134494 55.46926271 -0.80322266 61.53833008 C-1.296135 63.4974558 -1.73691143 65.4694708 -2.17578125 67.44140625 C-3.99675024 75.3035046 -3.99675024 75.3035046 -7.64453125 77.8359375 C-8.68996094 78.34382813 -9.73539063 78.85171875 -10.8125 79.375 C-12.36904297 80.16003906 -12.36904297 80.16003906 -13.95703125 80.9609375 C-17.35047821 82.11967549 -18.66023577 82.19428278 -22 81 C-24.82421875 79.40625 -24.82421875 79.40625 -27.6875 77.5 C-32.46401153 74.34582189 -34.98439224 72.82375192 -40.75 72.6875 C-42.28914063 72.63142578 -42.28914063 72.63142578 -43.859375 72.57421875 C-51.47342267 73.60647148 -56.59491535 80.29186131 -61.75 85.5 C-62.90048828 86.63888672 -62.90048828 86.63888672 -64.07421875 87.80078125 C-65.17443359 88.90486328 -65.17443359 88.90486328 -66.296875 90.03125 C-67.29219238 91.02995117 -67.29219238 91.02995117 -68.30761719 92.04882812 C-71.95275178 96.25135491 -72.49087662 99.84120411 -72.38671875 105.2734375 C-71.53011661 111.31291519 -68.21443369 116.4306205 -64.625 121.25 C-63 124 -63 124 -63 126.75 C-63.33 127.8225 -63.66 128.895 -64 130 C-64.18175781 130.82371094 -64.36351562 131.64742187 -64.55078125 132.49609375 C-65.38095081 135.42935952 -66.19147028 137.53620589 -68 140 C-71.86990181 141.77899964 -75.81467351 142.33749857 -80 143 C-87.61305033 144.80069154 -90.9510074 147.06937032 -95.10571289 153.78808594 C-97.15490763 158.8565283 -96.41370926 164.86272 -96.4375 170.25 C-96.48680664 172.19712891 -96.48680664 172.19712891 -96.53710938 174.18359375 C-96.5791138 181.6756549 -96.37114895 187.424057 -91 193 C-86.65896125 196.68239838 -82.88068457 197.68156334 -77.3125 198.5625 C-70.49597125 199.6480204 -70.49597125 199.6480204 -68.18359375 201.2890625 C-66.73146996 203.38817214 -65.72233332 205.45060078 -64.75 207.8125 C-64.39421875 208.64394531 -64.0384375 209.47539062 -63.671875 210.33203125 C-62.54012599 214.82612759 -63.40012832 217.90023525 -65.59375 221.921875 C-66.53734375 223.32179688 -66.53734375 223.32179688 -67.5 224.75 C-68.1290625 225.69359375 -68.758125 226.6371875 -69.40625 227.609375 C-70.19515625 228.79273438 -70.19515625 228.79273438 -71 230 C-72.84495821 233.68991642 -72.35337277 237.96411105 -72 242 C-70.57824678 245.72363938 -69.03163448 248.40145616 -66 251 C-67.96931123 255.47941777 -71.06607437 258.62823118 -74.375 262.17578125 C-76.20564083 264.14535464 -77.95551069 266.11748863 -79.6875 268.16796875 C-86.40152971 275.84902005 -86.40152971 275.84902005 -90.60546875 276.24609375 C-93.16281997 275.67911511 -95.53226079 274.87214887 -98 274 C-105.69935705 272.92844 -112.82733048 274.85457164 -119.046875 279.54296875 C-123.57294778 283.76923756 -125.00315553 287.00631105 -128 293 C-136.91 293 -145.82 293 -155 293 C-155.3125 281.375 -155.3125 281.375 -155.38793945 277.74365234 C-155.58301857 272.09062978 -155.9097482 267.90944887 -159 263 C-159.495 261.515 -159.495 261.515 -160 260 C-162.24743756 258.84979475 -162.24743756 258.84979475 -165 258 C-165.90234375 257.65710938 -166.8046875 257.31421875 -167.734375 256.9609375 C-171.29641203 255.91277828 -174.35796616 255.76408993 -178.0625 255.6875 C-184.57377876 255.3032728 -184.57377876 255.3032728 -188.25 252.6875 C-189.11625 251.3571875 -189.11625 251.3571875 -190 250 C-190.6496875 249.0409375 -190.6496875 249.0409375 -191.3125 248.0625 C-192.90226066 243.29321801 -192.08675626 239.77454751 -189.97143555 235.35351562 C-189.03891072 233.531371 -188.09310545 231.71598425 -187.13671875 229.90625 C-186.63010208 228.92370239 -186.12348541 227.94115479 -185.60151672 226.92883301 C-183.97486885 223.77985004 -182.33176275 220.63981521 -180.6875 217.5 C-179.6231991 215.44981526 -178.56003715 213.39903884 -177.49804688 211.34765625 C-175.91248383 208.28542546 -174.32661564 205.223367 -172.73776245 202.1628418 C-169.04049267 195.03543057 -165.38065528 187.89021225 -161.76953125 180.71875 C-161.30230148 179.79767456 -160.83507172 178.87659912 -160.35368347 177.9276123 C-159.92606216 177.07429321 -159.49844086 176.22097412 -159.05786133 175.34179688 C-158.68301102 174.59700073 -158.30816071 173.85220459 -157.92195129 173.08483887 C-156.08862767 168.93908369 -155.81304061 165.06711787 -155.5625 160.5625 C-155.42328125 158.71011719 -155.42328125 158.71011719 -155.28125 156.8203125 C-155.09853088 154.33837773 -154.95068991 151.85354032 -154.84375 149.3671875 C-154.56533469 145.9720675 -154.23882154 143.17705155 -153 140 C-150.56221191 138.0781459 -148.31420777 137.0715331 -145.41796875 135.9765625 C-142.2196481 134.68483364 -140.76621827 132.91809975 -139 130 C-138.00544091 127.01632274 -137.80440368 124.7995808 -137.68359375 121.67578125 C-137.62075195 120.13374023 -137.62075195 120.13374023 -137.55664062 118.56054688 C-137.51732422 117.48869141 -137.47800781 116.41683594 -137.4375 115.3125 C-137.37272461 113.68731445 -137.37272461 113.68731445 -137.30664062 112.02929688 C-137.20053162 109.35299209 -137.09847639 106.67659474 -137 104 C-136.28046143 103.9906543 -135.56092285 103.98130859 -134.81958008 103.97167969 C-112.07428324 104.33273521 -112.07428324 104.33273521 -92 95 C-91.42894531 94.54238281 -90.85789062 94.08476562 -90.26953125 93.61328125 C-83.95292117 88.05089327 -81.60314751 80.80944254 -79 73 C-78.93425623 71.45077933 -78.92599691 69.89876208 -78.95336914 68.34838867 C-78.97186668 66.93628365 -78.97186668 66.93628365 -78.99073792 65.49565125 C-79.01272499 63.97219841 -79.01272499 63.97219841 -79.03515625 62.41796875 C-79.04118599 60.26758411 -79.04435142 58.11718989 -79.04492188 55.96679688 C-79.0466412 52.57506014 -79.06251275 49.1868267 -79.12670898 45.7956543 C-79.18416124 42.52230616 -79.17785276 39.25416524 -79.16015625 35.98046875 C-79.19303238 34.97090622 -79.22590851 33.96134369 -79.25978088 32.92118835 C-79.20992627 29.9653656 -79.06385232 27.76271728 -78 25 C-74.95839522 22.29518426 -71.69178868 20.66028194 -68 19 C-66.94554687 18.39414062 -65.89109375 17.78828125 -64.8046875 17.1640625 C-45.30135591 6.9183123 -22.16657768 -0.40302869 0 0 Z " fill="#A19BDC" transform="translate(305,35)"/>
<path d="M0 0 C6.07903529 -0.34643078 11.13146551 0.88966794 16.9375 2.625 C17.86481934 2.89860352 18.79213867 3.17220703 19.74755859 3.45410156 C40.87067312 9.79285531 60.85595778 18.69898429 78.1015625 32.70703125 C81.27981863 35.24823604 82.58892151 36.02055392 86.75 35.8125 C87.8225 35.544375 88.895 35.27625 90 35 C94.91511344 35 97.59459535 38.71084411 101 42 C103.5625 44.75 103.5625 44.75 105 47 C104.67 47.99 104.34 48.98 104 50 C103.46930918 55.57802198 103.62446975 58.36491348 107.30200195 62.86694336 C107.77984131 63.42647705 108.25768066 63.98601074 108.75 64.5625 C119.688788 78.41805837 127.79033347 95.1466466 133 112 C133.22236328 112.71510742 133.44472656 113.43021484 133.67382812 114.16699219 C141.96531002 141.53360694 144.39588117 172.78466609 139 201 C138.8551416 201.76054687 138.7102832 202.52109375 138.56103516 203.3046875 C136.7552421 212.64106096 134.66557876 221.86926911 132 231 C131.79294434 231.73669922 131.58588867 232.47339844 131.37255859 233.23242188 C129.38509688 240.1379346 126.86118762 246.77153829 124.1875 253.4375 C123.77435547 254.49259766 123.36121094 255.54769531 122.93554688 256.63476562 C120.10374832 263.72517034 116.80651913 270.38279123 113 277 C106.06233789 276.53748919 100.34044218 273.7803239 94.0625 270.9375 C92.4081897 270.19910889 92.4081897 270.19910889 90.72045898 269.44580078 C82.0227784 265.53460558 73.46443729 261.39070672 65 257 C64.34 256.67 63.68 256.34 63 256 C63.58533748 252.4077919 64.96954 250.62701771 67.4375 248 C71.87464056 243.25716917 73.71646229 239.5291172 73.66796875 232.9921875 C72.62746258 228.33120665 70.01957011 224.80029077 67.2019043 220.99853516 C63.60580047 216.03618241 63.53868569 213.051446 64.42578125 207.18359375 C65.54021639 203.73228142 66.51996094 201.69014204 69 199 C72.82828028 197.27233235 76.8520136 196.41762282 80.96801758 195.65795898 C86.72844937 194.57705808 89.92992828 193.31540835 94 189 C97.00921639 183.14375603 96.37203074 176.69638975 96.37060547 170.28051758 C96.37498059 168.07229573 96.41134286 165.8660722 96.44921875 163.65820312 C96.4550877 162.24219427 96.45905657 160.82617601 96.4609375 159.41015625 C96.46915527 158.13277588 96.47737305 156.85539551 96.48583984 155.53930664 C95.82059893 150.69307671 93.65197404 147.74526199 90.33984375 144.24609375 C87.34819748 142.65287979 84.45859981 142.19100399 81.14379883 141.56835938 C70.19122342 139.42197365 70.19122342 139.42197365 66.640625 135.18359375 C64.72195922 130.58443901 63.34546673 126.00250429 64 121 C65.71484375 117.9921875 65.71484375 117.9921875 67.9375 114.875 C71.08668444 110.42059802 73.12953687 107.25815314 73.3125 101.75 C73.36857422 100.65945312 73.36857422 100.65945312 73.42578125 99.546875 C72.11877587 91.72882448 65.90414191 86.47695299 60.5 81.1875 C59.74074219 80.42501953 58.98148437 79.66253906 58.19921875 78.87695312 C51.79422451 72.53365323 47.85995543 70.28660855 38.6640625 70.328125 C33.4897027 71.27694151 29.90156415 73.73759402 25.75830078 76.88598633 C21.55530507 80.02436285 21.55530507 80.02436285 18.41796875 79.88671875 C17.62003906 79.59410156 16.82210937 79.30148438 16 79 C15.14019531 78.73703125 14.28039062 78.4740625 13.39453125 78.203125 C12.11642578 77.73132813 12.11642578 77.73132813 10.8125 77.25 C9.95269531 76.94578125 9.09289062 76.6415625 8.20703125 76.328125 C5.29258133 74.57429673 4.9213704 73.24084016 4 70 C3.51266953 67.86056569 3.05581235 65.71402756 2.625 63.5625 C0.80685251 55.55512825 0.80685251 55.55512825 -4.7890625 49.796875 C-9.41957002 47.25814115 -12.44155361 46.79406377 -18 46 C-18 36.43 -18 26.86 -18 17 C-14.37 15.02 -10.74 13.04 -7 11 C-3.72045441 7.21155941 -1.55574663 4.66723988 0 0 Z " fill="#B0ACE2" transform="translate(356,37)"/>
<path d="M0 0 C0.92941406 0.44472656 1.85882813 0.88945312 2.81640625 1.34765625 C15.98708558 8.41736362 25.53270055 20.78662201 30.37890625 34.76953125 C35.55618499 52.28569034 32.88436365 68.46129048 24.5625 84.44921875 C20.35099338 91.32450331 20.35099338 91.32450331 17 93 C15.66528861 92.89069174 14.33205445 92.76296278 13 92.625 C7.54478652 92.51941522 4.51381117 94.97432642 0.359375 98.2734375 C-2 100 -2 100 -4.73046875 101.01171875 C-5.47941406 101.33785156 -6.22835937 101.66398437 -7 102 C-7.7166207 104.31847874 -8.38242027 106.65319703 -9 109 C-15.08484122 114.88855602 -24.38750562 113.45801542 -32.25390625 113.33984375 C-44.31105897 112.86262683 -54.34101239 108.0502354 -64 101 C-65.03125 100.278125 -66.0625 99.55625 -67.125 98.8125 C-77.83305881 89.31141892 -86.14183161 74.44659673 -87.1328125 60.07373047 C-88.12260633 41.73367563 -83.13374348 26.57190158 -71.25390625 12.34765625 C-52.40023962 -7.29021835 -24.08219116 -11.94454613 0 0 Z " fill="#B1ADE2" transform="translate(358,152)"/>
<path d="M0 0 C10.16207617 -0.09286877 20.32405061 -0.1638505 30.48646545 -0.20724869 C35.20581095 -0.22808256 39.92486511 -0.25632305 44.64404297 -0.30175781 C49.20225876 -0.34536595 53.76019514 -0.36916868 58.31860352 -0.37950897 C60.05367427 -0.38687356 61.78873053 -0.40125483 63.52368164 -0.42292023 C65.96273291 -0.45215412 68.40064419 -0.45594781 70.83984375 -0.45410156 C71.90476295 -0.47567322 71.90476295 -0.47567322 72.99119568 -0.49768066 C79.40702315 -0.44547165 84.47112173 1.78392723 89.2421875 5.96484375 C89.78101563 6.61582031 90.31984375 7.26679688 90.875 7.9375 C91.42929688 8.58589844 91.98359375 9.23429687 92.5546875 9.90234375 C95.77525238 14.57651494 96.25694298 18.59503216 96.29052734 24.21777344 C96.29724457 24.92581116 96.30396179 25.63384888 96.31088257 26.36334229 C96.32982104 28.69542537 96.33378499 31.02721987 96.3359375 33.359375 C96.34236965 34.98976762 96.34909832 36.62015909 96.35610962 38.25054932 C96.36807296 41.66673455 96.37179155 45.08281874 96.37060547 48.49902344 C96.37040264 52.85784301 96.39767131 57.21600795 96.43214989 61.5746727 C96.45448766 64.94292116 96.45844087 68.31101399 96.45738602 71.67932892 C96.45973292 73.28516133 96.46850473 74.89099863 96.48405075 76.49675751 C96.56866445 86.14158226 96.53266914 94.60224887 90.03515625 102.33984375 C89.05869141 103.13068359 89.05869141 103.13068359 88.0625 103.9375 C87.41410156 104.48277344 86.76570313 105.02804688 86.09765625 105.58984375 C79.27062709 110.17933635 70.92035789 110.4600884 63 109 C40.52021733 101.50852535 22.15138431 79.93317369 11.27734375 59.8125 C3.5276251 43.95629815 -0.15583354 27.17394296 -0.04296875 9.58203125 C-0.03986694 8.65829712 -0.03676514 7.73456299 -0.03356934 6.78283691 C-0.02552835 4.52185875 -0.01425993 2.26094605 0 0 Z " fill="#8BDF9E" transform="translate(116,15)"/>
<path d="M0 0 C2.43017578 -0.34057617 2.43017578 -0.34057617 5.4453125 -0.29296875 C6.52167969 -0.28330078 7.59804688 -0.27363281 8.70703125 -0.26367188 C10.39892578 -0.2259668 10.39892578 -0.2259668 12.125 -0.1875 C13.26066406 -0.17396484 14.39632812 -0.16042969 15.56640625 -0.14648438 C18.37807387 -0.11104319 21.18880417 -0.06163517 24 0 C27.17487081 9.18884465 27.17487081 9.18884465 27.9375 13.6875 C28.8932358 17.95497147 29.9407032 20.722182 33 24 C36.87370741 26.30054239 40.88983 28.16423237 45 30 C45.67933594 30.34417969 46.35867188 30.68835938 47.05859375 31.04296875 C51.32702616 33.14268262 55.34974294 33.9880816 60 33 C64.95303532 30.97288902 69.9089938 28.73585438 74.046875 25.30078125 C76.59487507 23.60381321 77.97739148 23.68177129 81 24 C83.99266492 25.98082367 86.36990539 28.62763621 88.875 31.1875 C89.57625 31.86103516 90.2775 32.53457031 91 33.22851562 C91.98613281 34.21948242 91.98613281 34.21948242 92.9921875 35.23046875 C93.59401855 35.83270264 94.19584961 36.43493652 94.81591797 37.05541992 C96 39 96 39 95.8034668 41.56738281 C94.74968549 44.75786502 92.98610636 46.90689917 90.9375 49.5625 C87.44005511 54.75184964 85.8126693 58.36957298 86.28515625 64.64453125 C88.04306425 72.89613221 90.93961181 83.08623547 97.4375 88.875 C102.54751634 91.967371 108.86120037 92.59788754 114.68359375 93.45703125 C118 94 118 94 119 95 C119.09959621 96.84159023 119.13080411 98.68696967 119.1328125 100.53125 C119.13410156 101.65144531 119.13539063 102.77164063 119.13671875 103.92578125 C119.13285156 105.10527344 119.12898437 106.28476563 119.125 107.5 C119.12886719 108.67949219 119.13273438 109.85898438 119.13671875 111.07421875 C119.13478516 112.75451172 119.13478516 112.75451172 119.1328125 114.46875 C119.13168457 115.50451172 119.13055664 116.54027344 119.12939453 117.60742188 C119 120 119 120 118 121 C114.72783546 121.59253729 111.45532032 122.14300072 108.16601562 122.63085938 C102.17327708 123.64348279 97.89991672 125.69707064 93.9375 130.5 C88.88473773 138.98522946 84.91770712 148.01270638 87 158 C88.95002987 162.28905534 91.32345182 166.13051066 94 170 C96 173 96 173 95.91015625 174.890625 C94.6428854 177.82764757 92.73892742 179.54581599 90.4375 181.75 C89.19806641 182.94882812 89.19806641 182.94882812 87.93359375 184.171875 C87.29550781 184.77515625 86.65742188 185.3784375 86 186 C81.31526775 184.40844989 77.58355611 181.86873553 73.5625 179.0625 C72.86165283 178.57595947 72.16080566 178.08941895 71.4387207 177.58813477 C60.30416634 169.78302433 49.90190385 161.31587281 40 152 C42.25740623 149.66475218 44.2805761 147.81294927 47 146 C49.0859375 145.98046875 49.0859375 145.98046875 51.375 146.1875 C54.76182333 146.2258001 55.75437898 146.15993927 58.6875 144.25 C67.68462099 131.60539752 72.81481736 115.57409589 71 100 C67.77487932 82.58797207 59.67085282 69.10646768 45.3828125 58.52734375 C41.15208965 55.81551976 36.68312374 53.79930544 32 52 C31.34999023 51.73888428 30.69998047 51.47776855 30.03027344 51.20874023 C24.04416781 48.97423717 18.61005925 48.49361649 12.25 48.5625 C10.80355103 48.57168457 10.80355103 48.57168457 9.32788086 48.58105469 C-1.3470811 48.81391735 -9.86912429 51.44207566 -19 57 C-19.99 57 -20.98 57 -22 57 C-23.00935129 54.1071271 -24.00768744 51.21121485 -25 48.3125 C-25.28617187 47.49587891 -25.57234375 46.67925781 -25.8671875 45.83789062 C-28.68674224 37.54705703 -28.68674224 37.54705703 -28 34 C-26.56640625 32.55859375 -26.56640625 32.55859375 -24.5625 31.4375 C-23.83546875 31.02371094 -23.1084375 30.60992187 -22.359375 30.18359375 C-20.04260723 29.02137416 -17.70357213 27.99895463 -15.3125 27 C-10.58424763 24.97011234 -7.17242774 22.50375595 -4.93359375 17.72265625 C-3.58782436 13.79796478 -3.13464893 9.8391825 -2.5625 5.7421875 C-2 3 -2 3 0 0 Z " fill="#A2E5FD" transform="translate(319,98)"/>
<path d="M0 0 C9.37978532 -0.09290462 18.75941091 -0.1638683 28.13955688 -0.20724869 C32.49571041 -0.22807492 36.85154787 -0.25630099 41.20751953 -0.30175781 C45.41560957 -0.34539387 49.62339663 -0.3691744 53.83169556 -0.37950897 C55.43279791 -0.38686863 57.0338847 -0.4012402 58.63485718 -0.42292023 C75.69968258 -0.64470325 75.69968258 -0.64470325 83.2421875 5.96484375 C83.78101563 6.61582031 84.31984375 7.26679688 84.875 7.9375 C85.42929687 8.58589844 85.98359375 9.23429687 86.5546875 9.90234375 C89.77525238 14.57651494 90.25694298 18.59503216 90.29052734 24.21777344 C90.29724457 24.92581116 90.30396179 25.63384888 90.31088257 26.36334229 C90.32982104 28.69542537 90.33378499 31.02721987 90.3359375 33.359375 C90.34236965 34.98976762 90.34909832 36.62015909 90.35610962 38.25054932 C90.36807296 41.66673455 90.37179155 45.08281874 90.37060547 48.49902344 C90.37040264 52.85784301 90.39767131 57.21600795 90.43214989 61.5746727 C90.45448766 64.94292116 90.45844087 68.31101399 90.45738602 71.67932892 C90.45973292 73.28516133 90.46850473 74.89099863 90.48405075 76.49675751 C90.56866445 86.14158226 90.53266914 94.60224887 84.03515625 102.33984375 C78.41366199 106.89269752 74.47183919 109.55905685 67 109 C64.51550122 107.97054333 62.32615246 106.93123353 60 105.625 C59.35643555 105.27211914 58.71287109 104.91923828 58.04980469 104.55566406 C53.27435405 101.87107382 48.72211308 98.91144358 44.25 95.75 C43.66605469 95.33830566 43.08210938 94.92661133 42.48046875 94.50244141 C39.44880034 92.29050603 37.05371396 90.15288481 35 87 C35.7734375 86.90203125 36.546875 86.8040625 37.34375 86.703125 C45.99468684 85.46115882 52.76491875 84.19154465 58.375 77.125 C63.49290043 70.06286924 63.39499876 62.63691181 63.4375 54.25 C63.47037109 53.12078125 63.50324219 51.9915625 63.53710938 50.828125 C63.58564817 43.20312201 62.46950114 37.30444319 58 31 C52.2993059 25.49621628 46.67045621 22.99573674 38.75 22.5625 C31.79067441 22.72346399 26.01693091 24.90186805 21.11328125 29.9375 C15.71493548 36.83901712 14.66659336 42.71657063 14.375 51.3125 C14.31699219 52.70952148 14.31699219 52.70952148 14.2578125 54.13476562 C14.16393687 56.42298407 14.07825491 58.71120295 14 61 C5.59401568 50.64841694 3.14503416 36.80054216 1 24 C0.80019531 22.82179688 0.60039062 21.64359375 0.39453125 20.4296875 C-0.11932755 16.20407421 -0.0440069 11.97251858 -0.0246582 7.72314453 C-0.02287819 6.98000504 -0.02109818 6.23686554 -0.01926422 5.47120667 C-0.01463916 3.64746567 -0.00756386 1.82373117 0 0 Z " fill="#FEA974" transform="translate(407,388)"/>
<path d="M0 0 C0.92941406 0.44472656 1.85882813 0.88945312 2.81640625 1.34765625 C15.98708558 8.41736362 25.53270055 20.78662201 30.37890625 34.76953125 C35.55618499 52.28569034 32.88436365 68.46129048 24.5625 84.44921875 C20.35099338 91.32450331 20.35099338 91.32450331 17 93 C13.45768939 93.38503376 11.63742658 93.41935959 8.625 91.4375 C6.27418847 87.9112827 6.32246515 86.20071609 7 82 C8.32367923 79.45637815 9.78873644 77.0976466 11.39453125 74.72265625 C15.4877554 67.7811058 16.5283863 61.63742081 16.4375 53.625 C16.42992676 52.69397461 16.42235352 51.76294922 16.41455078 50.80371094 C16.25468453 44.15934274 15.5170445 38.75615668 12 33 C11.56429687 32.22785156 11.12859375 31.45570313 10.6796875 30.66015625 C4.5613022 20.61329952 -4.91174743 13.50079433 -16.328125 10.359375 C-30.05423589 8.51317295 -41.70448384 9.74216496 -53.3125 17.8125 C-62.20307148 25.06145143 -68.8699709 34.57529846 -71 46 C-71.87583442 60.49785482 -68.73365637 72.95647804 -59 84 C-52.7689733 90.58708537 -45.53833165 94.15388945 -37 97 C-35.21124902 97.03632791 -33.4210145 97.01433192 -31.6328125 96.95703125 C-30.58222656 96.93576172 -29.53164063 96.91449219 -28.44921875 96.89257812 C-26.24056669 96.83937323 -24.03216644 96.77434782 -21.82421875 96.69726562 C-13.76741845 96.56413612 -13.76741845 96.56413612 -9.78125 98.828125 C-8 101 -8 101 -7.375 103.9375 C-8.19814034 107.97088769 -9.84779909 109.43425507 -13 112 C-25.41071549 116.13690516 -41.48552663 113.48242825 -53 108 C-56.86237112 105.89630159 -60.44942109 103.59161914 -64 101 C-65.03125 100.278125 -66.0625 99.55625 -67.125 98.8125 C-77.83305881 89.31141892 -86.14183161 74.44659673 -87.1328125 60.07373047 C-88.12260633 41.73367563 -83.13374348 26.57190158 -71.25390625 12.34765625 C-52.40023962 -7.29021835 -24.08219116 -11.94454613 0 0 Z " fill="#030404" transform="translate(358,152)"/>
<path d="M0 0 C6.86162553 4.0686351 10.33068359 8.75790645 12.99609375 16.18359375 C13.65347435 20.56291873 13.65308329 24.8255154 13.55859375 29.24609375 C13.56955078 30.36564453 13.58050781 31.48519531 13.59179688 32.63867188 C13.51738898 41.09636909 11.7887994 47.65627049 6.74609375 54.49609375 C1.34354503 59.77585727 -5.12213978 62.24071765 -12.62890625 62.55859375 C-19.36750202 62.46914336 -24.79030227 59.97097236 -29.859375 55.57421875 C-37.02183462 47.86352148 -37.52695371 39.39185966 -37.50390625 29.30859375 C-37.53226562 28.18839844 -37.560625 27.06820313 -37.58984375 25.9140625 C-37.60942015 17.52557296 -36.04556572 10.61060493 -30.26269531 4.27636719 C-21.62503195 -3.81402043 -10.5035281 -5.41090841 0 0 Z " fill="#030201" transform="translate(458.00390625,412.81640625)"/>
<path d="M0 0 C6.86162553 4.0686351 10.33068359 8.75790645 12.99609375 16.18359375 C13.65347435 20.56291873 13.65308329 24.8255154 13.55859375 29.24609375 C13.56955078 30.36564453 13.58050781 31.48519531 13.59179688 32.63867188 C13.51738898 41.09636909 11.7887994 47.65627049 6.74609375 54.49609375 C1.34354503 59.77585727 -5.12213978 62.24071765 -12.62890625 62.55859375 C-19.36750202 62.46914336 -24.79030227 59.97097236 -29.859375 55.57421875 C-37.02183462 47.86352148 -37.52695371 39.39185966 -37.50390625 29.30859375 C-37.53226562 28.18839844 -37.560625 27.06820313 -37.58984375 25.9140625 C-37.60942015 17.52557296 -36.04556572 10.61060493 -30.26269531 4.27636719 C-21.62503195 -3.81402043 -10.5035281 -5.41090841 0 0 Z " fill="#030201" transform="translate(363.00390625,412.81640625)"/>
<path d="M0 0 C0.66 0.33 1.32 0.66 2 1 C1.67 1.99 1.34 2.98 1 4 C1.60842939 6.08437383 1.60842939 6.08437383 2.703125 8.2890625 C3.10063965 9.13960205 3.4981543 9.9901416 3.90771484 10.86645508 C4.572146 12.23193481 4.572146 12.23193481 5.25 13.625 C5.70455566 14.56561279 6.15911133 15.50622559 6.62744141 16.4753418 C15.84744789 35.13142402 28.3149168 52.3194724 42.5859375 67.43359375 C44.63549121 69.61248822 46.58538288 71.82840262 48.5 74.125 C50.86597104 77.10123262 50.86597104 77.10123262 54 79 C52.956766 82.12970199 52.15735717 82.91607618 49.1875 84.5 C48.135625 84.665 47.08375 84.83 46 85 C45.34773438 84.34902344 44.69546875 83.69804687 44.0234375 83.02734375 C39.35719266 79.89842764 34.9010826 80.7913234 29.4375 81.0625 C20.07652636 81.29303144 13.0906044 81.13128937 5 76 C3.90945313 75.33097656 3.90945313 75.33097656 2.796875 74.6484375 C-5.14386704 69.22327404 -11.31222487 61.85846513 -15 53 C-15.391875 52.13375 -15.78375 51.2675 -16.1875 50.375 C-19.9634986 39.33746563 -18.73664031 27.47356492 -14 17 C-10.42009096 10.30620558 -5.52376385 5.14523181 0 0 Z " fill="#A09BDC" transform="translate(304,169)"/>
<path d="M0 0 C6.75802514 1.24126992 10.75126821 9.03358412 14.5 14.3125 C15.04720703 15.07304688 15.59441406 15.83359375 16.15820312 16.6171875 C19.90988677 21.85622502 23.51987708 27.18020763 27.0625 32.5625 C27.0718457 31.73524414 27.08119141 30.90798828 27.09082031 30.05566406 C27.14450319 26.30733585 27.2281571 22.56025838 27.3125 18.8125 C27.32667969 17.51054688 27.34085938 16.20859375 27.35546875 14.8671875 C27.38769531 13.61679687 27.41992188 12.36640625 27.453125 11.078125 C27.47407227 9.92602539 27.49501953 8.77392578 27.51660156 7.58691406 C28.17083486 3.96229775 29.15926738 2.76536244 32.0625 0.5625 C35.893098 -0.17101877 37.4602629 0.16167442 40.71240234 2.32617188 C44.30288886 7.27064406 43.77854224 11.94073476 43.7265625 17.90625 C43.73134613 19.10809937 43.73612976 20.30994873 43.74105835 21.54821777 C43.74445753 24.08668325 43.73525412 26.62519249 43.71435547 29.16357422 C43.68759406 33.04884463 43.71410683 36.93122569 43.74609375 40.81640625 C43.74278966 43.28386054 43.73638345 45.75131304 43.7265625 48.21875 C43.73668365 49.38031616 43.74680481 50.54188232 43.75723267 51.73864746 C43.64046496 59.77435511 43.64046496 59.77435511 40.70068359 63.78320312 C38.0625 65.5625 38.0625 65.5625 35.1875 66.375 C27.50371648 64.37721629 22.50656767 54.09866731 18.3125 47.8125 C17.19343709 46.15055073 16.07367031 44.48907514 14.953125 42.828125 C14.22657715 41.74192871 14.22657715 41.74192871 13.48535156 40.63378906 C12.06473976 38.56576049 10.58189965 36.55875046 9.0625 34.5625 C9.05633667 35.70464966 9.05633667 35.70464966 9.05004883 36.86987305 C9.0170886 40.33069666 8.94643946 43.78976571 8.875 47.25 C8.86919922 48.44818359 8.86339844 49.64636719 8.85742188 50.88085938 C8.60872633 60.80104824 8.60872633 60.80104824 5.703125 63.859375 C2.4536505 65.95518991 0.85660375 66.2890305 -2.9375 65.5625 C-5.59429337 63.48310654 -6.79552518 62.29427936 -7.44543457 58.94445801 C-7.44861694 57.9528064 -7.45179932 56.96115479 -7.45507812 55.93945312 C-7.46768677 54.81148315 -7.48029541 53.68351318 -7.49328613 52.5213623 C-7.48518921 51.30775024 -7.47709229 50.09413818 -7.46875 48.84375 C-7.4725769 47.59372192 -7.47640381 46.34369385 -7.48034668 45.05578613 C-7.48306914 42.41244095 -7.47769953 39.77057514 -7.45898438 37.12744141 C-7.43619354 33.74432509 -7.44931983 30.36247803 -7.47327423 26.97940826 C-7.49122684 23.74664367 -7.47864701 20.51403118 -7.46875 17.28125 C-7.47684692 16.06763794 -7.48494385 14.85402588 -7.49328613 13.6036377 C-7.48067749 12.47566772 -7.46806885 11.34769775 -7.45507812 10.18554688 C-7.45189575 9.19389526 -7.44871338 8.20224365 -7.44543457 7.18054199 C-6.59223304 2.78289402 -4.32234453 0.82768299 0 0 Z " fill="#020402" transform="translate(41.9375,36.4375)"/>
<path d="M0 0 C0.43699219 0.99580078 0.43699219 0.99580078 0.8828125 2.01171875 C5.14386816 11.19040782 9.02054752 13.8688843 18 19 C18 28.57 18 38.14 18 48 C14.7 48.66 11.4 49.32 8 50 C2.53011675 53.08783732 0.90134494 55.46926271 -0.80322266 61.53833008 C-1.296135 63.4974558 -1.73691143 65.4694708 -2.17578125 67.44140625 C-3.99662746 75.30297448 -3.99662746 75.30297448 -7.27734375 77.58203125 C-8.15519531 77.98808594 -9.03304688 78.39414063 -9.9375 78.8125 C-10.81277344 79.23144531 -11.68804687 79.65039062 -12.58984375 80.08203125 C-15 81 -15 81 -18 81 C-23.11580739 54.97759308 -23.25123577 29.42807086 -23 3 C-15.27501671 0.36693291 -8.12370102 -0.14770365 0 0 Z " fill="#B0ACE2" transform="translate(305,35)"/>
<path d="M0 0 C1.47823242 -0.00290039 1.47823242 -0.00290039 2.98632812 -0.00585938 C4.51483398 0.02991211 4.51483398 0.02991211 6.07421875 0.06640625 C7.08162109 0.05544922 8.08902344 0.04449219 9.12695312 0.03320312 C17.07369426 0.11085858 22.43194284 1.82886742 28.51171875 6.94140625 C33.96713107 13.45759319 35.55374122 17.76370959 35.27734375 26.33203125 C34.22589294 33.05494398 30.92134588 37.82921698 25.76171875 42.12890625 C18.59537037 45.71208044 12.67993141 45.8595338 4.76171875 45.62890625 C4.81972656 46.7375 4.87773437 47.84609375 4.9375 48.98828125 C4.98440704 50.45178077 5.0299062 51.91532588 5.07421875 53.37890625 C5.13706055 54.47332031 5.13706055 54.47332031 5.20117188 55.58984375 C5.28964273 59.4825615 5.13265536 61.22195024 2.46875 64.14453125 C-0.23828125 65.62890625 -0.23828125 65.62890625 -3.86328125 65.62890625 C-7.65293614 64.50604554 -8.31777913 63.95282309 -10.23828125 60.62890625 C-10.63269043 58.09352112 -10.63269043 58.09352112 -10.65820312 55.20532227 C-10.67411499 54.12062149 -10.69002686 53.03592072 -10.7064209 51.91835022 C-10.70662231 50.75162277 -10.70682373 49.58489532 -10.70703125 48.3828125 C-10.71464478 47.17954819 -10.7222583 45.97628387 -10.73010254 44.73655701 C-10.74090704 42.19214961 -10.74375525 39.64769785 -10.73925781 37.10327148 C-10.73828573 33.20937173 -10.77990318 29.31744323 -10.82421875 25.42382812 C-10.82942581 22.95182703 -10.83211394 20.47981908 -10.83203125 18.0078125 C-10.84842651 16.84310928 -10.86482178 15.67840607 -10.88171387 14.47840881 C-10.81321424 6.47043892 -10.81321424 6.47043892 -8.02856445 2.39453125 C-5.02582638 0.49446985 -3.51653663 -0.00287638 0 0 Z " fill="#020302" transform="translate(157.23828125,36.37109375)"/>
<path d="M0 0 C3.06026716 2.66792522 3.9316303 4.12828631 4.25 8.1875 C3.50969422 11.73638853 1.62322661 13.88849651 -0.6875 16.625 C-10.48787567 28.28709578 -14.56239902 42.96293852 -14 58.0625 C-12.56311402 71.48362654 -7.41136907 83.21808464 1.15625 93.6171875 C3.40805894 96.52736431 3.92357567 98.33163239 4 102 C1.86956522 106.56521739 1.86956522 106.56521739 -1 108 C-4.3637677 108.52764984 -6.84336713 108.7685353 -9.76953125 106.82421875 C-20.37018893 96.79786306 -27.91592384 81.37200576 -30 67 C-30.10957031 66.26394531 -30.21914063 65.52789062 -30.33203125 64.76953125 C-30.62324788 62.51357309 -30.83227313 60.26830621 -31 58 C-31.05414063 57.3503125 -31.10828125 56.700625 -31.1640625 56.03125 C-31.90295928 38.56641695 -25.87088577 20.53963926 -15 7 C-14.17242187 5.94619141 -14.17242187 5.94619141 -13.328125 4.87109375 C-9.25966424 -0.11377772 -6.64815015 -1.89947147 0 0 Z " fill="#000000" transform="translate(65,282)"/>
<path d="M0 0 C4.25545652 0.78161446 5.46423982 2.10728312 8.0625 5.5625 C8.74760643 9.01437313 8.64521191 12.38714637 8.55078125 15.89453125 C8.54016914 17.38215218 8.54016914 17.38215218 8.52934265 18.89982605 C8.50141433 22.05899342 8.4386772 25.21637082 8.375 28.375 C8.34991518 30.52015665 8.32710234 32.66534115 8.30664062 34.81054688 C8.25159327 40.06180584 8.1679831 45.31202503 8.0625 50.5625 C8.89104492 50.54437256 9.71958984 50.52624512 10.57324219 50.50756836 C11.65766602 50.49346924 12.74208984 50.47937012 13.859375 50.46484375 C14.93541992 50.44671631 16.01146484 50.42858887 17.12011719 50.40991211 C20.0625 50.5625 20.0625 50.5625 23.3125 52.125 C25.0625 54.5625 25.0625 54.5625 25.6875 58.0625 C25.0625 61.5625 25.0625 61.5625 23.24609375 63.75 C18.43557767 66.4887478 13.9389323 66.14362764 8.5 66.0625 C6.93862305 66.08570312 6.93862305 66.08570312 5.34570312 66.109375 C4.34345703 66.10421875 3.34121094 66.0990625 2.30859375 66.09375 C1.39779053 66.08923828 0.4869873 66.08472656 -0.45141602 66.08007812 C-3.76099621 65.39105622 -4.82500193 64.17260095 -6.9375 61.5625 C-7.44543457 58.94445801 -7.44543457 58.94445801 -7.45507812 55.93945312 C-7.46768677 54.81148315 -7.48029541 53.68351318 -7.49328613 52.5213623 C-7.48518921 51.30775024 -7.47709229 50.09413818 -7.46875 48.84375 C-7.4725769 47.59372192 -7.47640381 46.34369385 -7.48034668 45.05578613 C-7.48306914 42.41244095 -7.47769953 39.77057514 -7.45898438 37.12744141 C-7.43619354 33.74432509 -7.44931983 30.36247803 -7.47327423 26.97940826 C-7.49122684 23.74664367 -7.47864701 20.51403118 -7.46875 17.28125 C-7.47684692 16.06763794 -7.48494385 14.85402588 -7.49328613 13.6036377 C-7.48067749 12.47566772 -7.46806885 11.34769775 -7.45507812 10.18554688 C-7.45189575 9.19389526 -7.44871338 8.20224365 -7.44543457 7.18054199 C-6.59223304 2.78289402 -4.32234453 0.82768299 0 0 Z " fill="#010302" transform="translate(106.9375,36.4375)"/>
<path d="M0 0 C2.4375 1.5 2.4375 1.5 4 4 C4.67677345 8.06064069 4.9681673 10.46125134 2.75390625 13.98046875 C1.69142913 15.30790275 0.61809668 16.62670685 -0.46484375 17.9375 C-4.78606704 23.74311297 -5.90325748 30.93262053 -5 38 C-3.689181 43.72770913 -1.5043667 48.25214834 2 53 C4.44729273 56.6709391 4.82221316 59.73476922 4 64 C1.9375 66.5625 1.9375 66.5625 -1 68 C-4.73351573 68.27655672 -6.90416859 67.90616828 -9.828125 65.48828125 C-19.13824898 55.51025708 -22.56276756 43.80729969 -22.3125 30.40234375 C-21.31858029 19.58104287 -16.96524671 9.34718877 -9.5625 1.375 C-6.10412985 -0.48071081 -3.86678412 -0.56244133 0 0 Z " fill="#000000" transform="translate(86,302)"/>
<path d="M0 0 C1.94712891 -0.04640625 1.94712891 -0.04640625 3.93359375 -0.09375 C7.5625 0.5 7.5625 0.5 10.24780273 2.265625 C13.79023 7.21553286 13.27836652 11.89840052 13.2265625 17.84375 C13.23134613 19.04559937 13.23612976 20.24744873 13.24105835 21.48571777 C13.24445753 24.02418325 13.23525412 26.56269249 13.21435547 29.10107422 C13.18759406 32.98634463 13.21410683 36.86872569 13.24609375 40.75390625 C13.24278966 43.22136054 13.23638345 45.68881304 13.2265625 48.15625 C13.23668365 49.31781616 13.24680481 50.47938232 13.25723267 51.67614746 C13.12699161 60.63906204 13.12699161 60.63906204 10.24755859 63.76757812 C7.5625 65.5 7.5625 65.5 3.9375 65.5625 C0.1930527 64.38369252 -0.50253852 63.77845003 -2.4375 60.5 C-2.79826355 58.31060791 -2.79826355 58.31060791 -2.77807617 55.91503906 C-2.77773628 54.56409149 -2.77773628 54.56409149 -2.77738953 53.18585205 C-2.76190567 52.22217712 -2.74642181 51.2585022 -2.73046875 50.265625 C-2.72622391 49.27246277 -2.72197906 48.27930054 -2.71760559 47.25604248 C-2.70082634 44.08708472 -2.663175 40.91876522 -2.625 37.75 C-2.60995221 35.60026961 -2.59626397 33.45052924 -2.58398438 31.30078125 C-2.55092536 26.03363677 -2.50073334 20.76686399 -2.4375 15.5 C-3.55125 15.36851562 -4.665 15.23703125 -5.8125 15.1015625 C-9.4375 14.5 -9.4375 14.5 -11.4375 12.875 C-12.90731805 9.38418213 -12.42163921 7.10851044 -11.4375 3.5 C-8.06236022 -0.06540501 -4.74129502 0.03759203 0 0 Z " fill="#010000" transform="translate(393.4375,409.5)"/>
<path d="M0 0 C0.77859375 0.05929687 1.5571875 0.11859375 2.359375 0.1796875 C3.51179688 0.24542969 3.51179688 0.24542969 4.6875 0.3125 C8.40732014 1.45244488 9.82910189 2.89339978 12.109375 6.0546875 C12.78783222 9.55331017 12.71737635 12.94041592 12.609375 16.4921875 C12.61324219 17.8853418 12.61324219 17.8853418 12.6171875 19.30664062 C12.54196537 24.59099517 12.12054609 28.52699441 9.109375 33.0546875 C5.52471042 35.18610968 2.22314745 35.65461265 -1.890625 35.0546875 C-4.99227269 32.50444385 -6.61628916 30.87769503 -7.890625 27.0546875 C-8.1948797 23.60158928 -8.2141193 20.14461622 -8.265625 16.6796875 C-8.30300781 15.73351562 -8.34039062 14.78734375 -8.37890625 13.8125 C-8.46777394 6.78207838 -8.46777394 6.78207838 -5.4296875 2.953125 C-4.59179688 2.32664062 -3.75390625 1.70015625 -2.890625 1.0546875 C-1.890625 0.0546875 -1.890625 0.0546875 0 0 Z " fill="#FAA772" transform="translate(443.890625,424.9453125)"/>
<path d="M0 0 C0.77859375 0.05929687 1.5571875 0.11859375 2.359375 0.1796875 C3.51179688 0.24542969 3.51179688 0.24542969 4.6875 0.3125 C8.40732014 1.45244488 9.82910189 2.89339978 12.109375 6.0546875 C12.78783222 9.55331017 12.71737635 12.94041592 12.609375 16.4921875 C12.61324219 17.8853418 12.61324219 17.8853418 12.6171875 19.30664062 C12.54196537 24.59099517 12.12054609 28.52699441 9.109375 33.0546875 C5.52471042 35.18610968 2.22314745 35.65461265 -1.890625 35.0546875 C-4.99227269 32.50444385 -6.61628916 30.87769503 -7.890625 27.0546875 C-8.1948797 23.60158928 -8.2141193 20.14461622 -8.265625 16.6796875 C-8.30300781 15.73351562 -8.34039062 14.78734375 -8.37890625 13.8125 C-8.46777394 6.78207838 -8.46777394 6.78207838 -5.4296875 2.953125 C-4.59179688 2.32664062 -3.75390625 1.70015625 -2.890625 1.0546875 C-1.890625 0.0546875 -1.890625 0.0546875 0 0 Z " fill="#FA975A" transform="translate(348.890625,424.9453125)"/>
<path d="M0 0 C3.48718682 2.19106428 4.97050111 4.42794445 6.3125 8.375 C6.88905769 12.32853844 6.50756815 14.00653793 4.625 17.5625 C1.10249962 21.84662208 -1.07016721 23.19529636 -6.625 23.8125 C-10.88484994 23.64339443 -13.43413122 22.16360181 -16.6875 19.375 C-19.23677287 15.1875346 -19.50801202 11.1571761 -18.6875 6.375 C-17.00664939 3.20750064 -14.67585778 1.0764152 -11.75 -1 C-7.39365949 -2.32010318 -4.02754812 -2.03926487 0 0 Z " fill="#F89CA7" transform="translate(209.6875,324.625)"/>
<path d="M0 0 C3.18618806 2.09998758 4.35911202 3.2580085 5.75 6.8125 C6.31014693 11.09140015 6.20420832 14.65174541 4.625 18.6875 C1.33653613 22.41442572 -1.86764256 23.63970532 -6.75 24.25 C-10.95552222 23.72430972 -13.01772984 22.51858664 -16.25 19.8125 C-19.00174967 15.40782219 -18.91954935 10.85045062 -18.25 5.8125 C-14.01045737 -1.45528737 -7.82093809 -2.85765046 0 0 Z " fill="#F993BC" transform="translate(337.25,16.1875)"/>
<path d="M0 0 C9.03614458 -0.48192771 9.03614458 -0.48192771 13.125 1.5625 C15 4 15 4 15.625 7.5 C15 11 15 11 13.125 13.4375 C8.59021366 15.70489317 5.03940403 15.26876822 0 15 C0 10.05 0 5.1 0 0 Z " fill="#88D99A" transform="translate(162,52)"/>
</svg>
